<mxfile host="app.diagrams.net" modified="2024-05-27T17:08:12.570Z" agent="Mozilla/5.0 (Windows NT 10.0; Win64; x64) AppleWebKit/537.36 (KHTML, like Gecko) Chrome/125.0.0.0 Safari/537.36" etag="J10IBLOeGJ6DYE7Z4W1w" version="24.4.9" type="github">
  <diagram name="PÃ¡gina-1" id="1_3evZqiN-lLb-iPQv4Q">
    <mxGraphModel dx="-104" dy="400" grid="0" gridSize="10" guides="1" tooltips="1" connect="1" arrows="1" fold="1" page="0" pageScale="1" pageWidth="827" pageHeight="1169" math="0" shadow="0">
      <root>
        <mxCell id="0" />
        <mxCell id="1" parent="0" />
        <mxCell id="NdbCEnWut0nsUWgQ2R_E-102" value="&lt;p style=&quot;margin:0px;margin-top:4px;margin-left:5px;text-align:left;&quot;&gt;&lt;b&gt;sd&lt;/b&gt;&amp;nbsp;See appointments&lt;/p&gt;" style="html=1;shape=mxgraph.sysml.package;overflow=fill;labelX=125.17;align=left;spacingLeft=5;verticalAlign=top;spacingTop=-3;" vertex="1" parent="1">
          <mxGeometry x="1660" y="414" width="935" height="671" as="geometry" />
        </mxCell>
        <mxCell id="NdbCEnWut0nsUWgQ2R_E-5" value="&lt;b&gt;:Review Interface&lt;/b&gt;" style="shape=umlLifeline;perimeter=lifelinePerimeter;whiteSpace=wrap;html=1;container=1;dropTarget=0;collapsible=0;recursiveResize=0;outlineConnect=0;portConstraint=eastwest;newEdgeStyle={&quot;edgeStyle&quot;:&quot;elbowEdgeStyle&quot;,&quot;elbow&quot;:&quot;vertical&quot;,&quot;curved&quot;:0,&quot;rounded&quot;:0};size=36;" vertex="1" parent="1">
          <mxGeometry x="1838" y="468" width="197" height="603" as="geometry" />
        </mxCell>
        <mxCell id="NdbCEnWut0nsUWgQ2R_E-6" value="" style="html=1;points=[[0,0,0,0,5],[0,1,0,0,-5],[1,0,0,0,5],[1,1,0,0,-5]];perimeter=orthogonalPerimeter;outlineConnect=0;targetShapes=umlLifeline;portConstraint=eastwest;newEdgeStyle={&quot;curved&quot;:0,&quot;rounded&quot;:0};" vertex="1" parent="NdbCEnWut0nsUWgQ2R_E-5">
          <mxGeometry x="93.5" y="60" width="10" height="519" as="geometry" />
        </mxCell>
        <mxCell id="NdbCEnWut0nsUWgQ2R_E-7" value="&lt;b&gt;:Review controller&lt;/b&gt;" style="shape=umlLifeline;perimeter=lifelinePerimeter;whiteSpace=wrap;html=1;container=1;dropTarget=0;collapsible=0;recursiveResize=0;outlineConnect=0;portConstraint=eastwest;newEdgeStyle={&quot;edgeStyle&quot;:&quot;elbowEdgeStyle&quot;,&quot;elbow&quot;:&quot;vertical&quot;,&quot;curved&quot;:0,&quot;rounded&quot;:0};" vertex="1" parent="1">
          <mxGeometry x="2102" y="468" width="154" height="602" as="geometry" />
        </mxCell>
        <mxCell id="NdbCEnWut0nsUWgQ2R_E-8" value="" style="html=1;points=[[0,0,0,0,5],[0,1,0,0,-5],[1,0,0,0,5],[1,1,0,0,-5]];perimeter=orthogonalPerimeter;outlineConnect=0;targetShapes=umlLifeline;portConstraint=eastwest;newEdgeStyle={&quot;curved&quot;:0,&quot;rounded&quot;:0};" vertex="1" parent="NdbCEnWut0nsUWgQ2R_E-7">
          <mxGeometry x="72" y="80" width="10" height="464" as="geometry" />
        </mxCell>
        <mxCell id="NdbCEnWut0nsUWgQ2R_E-72" value="generateReviewForm(appointment)" style="html=1;align=left;spacingLeft=2;endArrow=block;rounded=0;edgeStyle=orthogonalEdgeStyle;curved=0;rounded=0;strokeColor=default;verticalAlign=middle;fontFamily=Helvetica;fontSize=11;fontColor=default;labelBackgroundColor=default;" edge="1" target="NdbCEnWut0nsUWgQ2R_E-73" parent="NdbCEnWut0nsUWgQ2R_E-7">
          <mxGeometry relative="1" as="geometry">
            <mxPoint x="81" y="158" as="sourcePoint" />
            <Array as="points">
              <mxPoint x="118" y="158" />
              <mxPoint x="118" y="185" />
            </Array>
            <mxPoint x="118" y="149.0322580645161" as="targetPoint" />
          </mxGeometry>
        </mxCell>
        <mxCell id="NdbCEnWut0nsUWgQ2R_E-73" value="" style="html=1;points=[[0,0,0,0,5],[0,1,0,0,-5],[1,0,0,0,5],[1,1,0,0,-5]];perimeter=orthogonalPerimeter;outlineConnect=0;targetShapes=umlLifeline;portConstraint=eastwest;newEdgeStyle={&quot;curved&quot;:0,&quot;rounded&quot;:0};fontFamily=Helvetica;fontSize=11;fontColor=default;labelBackgroundColor=default;" vertex="1" parent="NdbCEnWut0nsUWgQ2R_E-7">
          <mxGeometry x="77" y="174" width="10" height="40" as="geometry" />
        </mxCell>
        <mxCell id="NdbCEnWut0nsUWgQ2R_E-74" value="" style="html=1;align=left;spacingLeft=2;endArrow=block;rounded=0;edgeStyle=orthogonalEdgeStyle;curved=0;rounded=0;strokeColor=default;verticalAlign=middle;fontFamily=Helvetica;fontSize=11;fontColor=default;labelBackgroundColor=default;dashed=1;" edge="1" source="NdbCEnWut0nsUWgQ2R_E-73" parent="NdbCEnWut0nsUWgQ2R_E-7">
          <mxGeometry relative="1" as="geometry">
            <mxPoint x="98" y="228" as="sourcePoint" />
            <Array as="points">
              <mxPoint x="118" y="204" />
              <mxPoint x="118" y="234" />
            </Array>
            <mxPoint x="81" y="234" as="targetPoint" />
          </mxGeometry>
        </mxCell>
        <mxCell id="NdbCEnWut0nsUWgQ2R_E-94" value="computeAnalytics(review)" style="html=1;align=left;spacingLeft=2;endArrow=block;rounded=0;edgeStyle=orthogonalEdgeStyle;curved=0;rounded=0;strokeColor=default;verticalAlign=middle;fontFamily=Helvetica;fontSize=11;fontColor=default;labelBackgroundColor=default;" edge="1" target="NdbCEnWut0nsUWgQ2R_E-95" parent="NdbCEnWut0nsUWgQ2R_E-7">
          <mxGeometry relative="1" as="geometry">
            <mxPoint x="81" y="430" as="sourcePoint" />
            <Array as="points">
              <mxPoint x="118" y="430" />
              <mxPoint x="118" y="457" />
            </Array>
            <mxPoint x="118" y="421.0322580645161" as="targetPoint" />
          </mxGeometry>
        </mxCell>
        <mxCell id="NdbCEnWut0nsUWgQ2R_E-95" value="" style="html=1;points=[[0,0,0,0,5],[0,1,0,0,-5],[1,0,0,0,5],[1,1,0,0,-5]];perimeter=orthogonalPerimeter;outlineConnect=0;targetShapes=umlLifeline;portConstraint=eastwest;newEdgeStyle={&quot;curved&quot;:0,&quot;rounded&quot;:0};fontFamily=Helvetica;fontSize=11;fontColor=default;labelBackgroundColor=default;" vertex="1" parent="NdbCEnWut0nsUWgQ2R_E-7">
          <mxGeometry x="77" y="446" width="10" height="40" as="geometry" />
        </mxCell>
        <mxCell id="NdbCEnWut0nsUWgQ2R_E-96" value="" style="html=1;align=left;spacingLeft=2;endArrow=block;rounded=0;edgeStyle=orthogonalEdgeStyle;curved=0;rounded=0;strokeColor=default;verticalAlign=middle;fontFamily=Helvetica;fontSize=11;fontColor=default;labelBackgroundColor=default;dashed=1;" edge="1" source="NdbCEnWut0nsUWgQ2R_E-95" parent="NdbCEnWut0nsUWgQ2R_E-7">
          <mxGeometry relative="1" as="geometry">
            <mxPoint x="98" y="500" as="sourcePoint" />
            <Array as="points">
              <mxPoint x="118" y="476" />
              <mxPoint x="118" y="506" />
            </Array>
            <mxPoint x="81" y="506" as="targetPoint" />
          </mxGeometry>
        </mxCell>
        <mxCell id="NdbCEnWut0nsUWgQ2R_E-12" value="" style="shape=umlLifeline;perimeter=lifelinePerimeter;whiteSpace=wrap;html=1;container=1;dropTarget=0;collapsible=0;recursiveResize=0;outlineConnect=0;portConstraint=eastwest;newEdgeStyle={&quot;curved&quot;:0,&quot;rounded&quot;:0};participant=umlActor;" vertex="1" parent="1">
          <mxGeometry x="1700" y="465" width="20" height="602" as="geometry" />
        </mxCell>
        <mxCell id="NdbCEnWut0nsUWgQ2R_E-13" value="Patient" style="text;html=1;align=center;verticalAlign=middle;resizable=0;points=[];autosize=1;strokeColor=none;fillColor=none;" vertex="1" parent="1">
          <mxGeometry x="1682.5" y="439" width="55" height="26" as="geometry" />
        </mxCell>
        <mxCell id="NdbCEnWut0nsUWgQ2R_E-14" value="&lt;b&gt;:Review&lt;/b&gt;" style="shape=umlLifeline;perimeter=lifelinePerimeter;whiteSpace=wrap;html=1;container=1;dropTarget=0;collapsible=0;recursiveResize=0;outlineConnect=0;portConstraint=eastwest;newEdgeStyle={&quot;edgeStyle&quot;:&quot;elbowEdgeStyle&quot;,&quot;elbow&quot;:&quot;vertical&quot;,&quot;curved&quot;:0,&quot;rounded&quot;:0};" vertex="1" parent="1">
          <mxGeometry x="2320" y="468" width="88" height="601" as="geometry" />
        </mxCell>
        <mxCell id="NdbCEnWut0nsUWgQ2R_E-86" value="" style="html=1;points=[[0,0,0,0,5],[0,1,0,0,-5],[1,0,0,0,5],[1,1,0,0,-5]];perimeter=orthogonalPerimeter;outlineConnect=0;targetShapes=umlLifeline;portConstraint=eastwest;newEdgeStyle={&quot;curved&quot;:0,&quot;rounded&quot;:0};" vertex="1" parent="NdbCEnWut0nsUWgQ2R_E-14">
          <mxGeometry x="39" y="366" width="10" height="52" as="geometry" />
        </mxCell>
        <mxCell id="NdbCEnWut0nsUWgQ2R_E-16" style="rounded=0;orthogonalLoop=1;jettySize=auto;html=1;endArrow=open;endFill=0;" edge="1" parent="1" source="NdbCEnWut0nsUWgQ2R_E-12" target="NdbCEnWut0nsUWgQ2R_E-6">
          <mxGeometry relative="1" as="geometry">
            <mxPoint x="1715.5" y="541" as="sourcePoint" />
            <Array as="points">
              <mxPoint x="1826" y="538" />
            </Array>
          </mxGeometry>
        </mxCell>
        <mxCell id="NdbCEnWut0nsUWgQ2R_E-17" value="clickButton (&#39;review doctor&#39;, appointment)" style="edgeLabel;html=1;align=center;verticalAlign=middle;resizable=0;points=[];" vertex="1" connectable="0" parent="NdbCEnWut0nsUWgQ2R_E-16">
          <mxGeometry x="-0.1981" y="-1" relative="1" as="geometry">
            <mxPoint x="16" y="-10" as="offset" />
          </mxGeometry>
        </mxCell>
        <mxCell id="NdbCEnWut0nsUWgQ2R_E-61" value="&lt;b&gt;:Appointment&lt;/b&gt;" style="shape=umlLifeline;perimeter=lifelinePerimeter;whiteSpace=wrap;html=1;container=1;dropTarget=0;collapsible=0;recursiveResize=0;outlineConnect=0;portConstraint=eastwest;newEdgeStyle={&quot;edgeStyle&quot;:&quot;elbowEdgeStyle&quot;,&quot;elbow&quot;:&quot;vertical&quot;,&quot;curved&quot;:0,&quot;rounded&quot;:0};" vertex="1" parent="1">
          <mxGeometry x="2498" y="467" width="88" height="604" as="geometry" />
        </mxCell>
        <mxCell id="NdbCEnWut0nsUWgQ2R_E-62" value="" style="html=1;points=[[0,0,0,0,5],[0,1,0,0,-5],[1,0,0,0,5],[1,1,0,0,-5]];perimeter=orthogonalPerimeter;outlineConnect=0;targetShapes=umlLifeline;portConstraint=eastwest;newEdgeStyle={&quot;curved&quot;:0,&quot;rounded&quot;:0};" vertex="1" parent="NdbCEnWut0nsUWgQ2R_E-61">
          <mxGeometry x="39" y="106" width="10" height="44" as="geometry" />
        </mxCell>
        <mxCell id="NdbCEnWut0nsUWgQ2R_E-63" style="rounded=0;orthogonalLoop=1;jettySize=auto;html=1;endArrow=open;endFill=0;" edge="1" parent="1" source="NdbCEnWut0nsUWgQ2R_E-6" target="NdbCEnWut0nsUWgQ2R_E-8">
          <mxGeometry relative="1" as="geometry">
            <mxPoint x="1945" y="566" as="sourcePoint" />
            <Array as="points">
              <mxPoint x="2020" y="566" />
            </Array>
            <mxPoint x="2125" y="566" as="targetPoint" />
          </mxGeometry>
        </mxCell>
        <mxCell id="NdbCEnWut0nsUWgQ2R_E-64" value="getAppointmentInformation(appointment)" style="edgeLabel;html=1;align=center;verticalAlign=middle;resizable=0;points=[];" vertex="1" connectable="0" parent="NdbCEnWut0nsUWgQ2R_E-63">
          <mxGeometry x="-0.1981" y="-1" relative="1" as="geometry">
            <mxPoint x="16" y="-10" as="offset" />
          </mxGeometry>
        </mxCell>
        <mxCell id="NdbCEnWut0nsUWgQ2R_E-65" style="rounded=0;orthogonalLoop=1;jettySize=auto;html=1;endArrow=open;endFill=0;" edge="1" parent="1" source="NdbCEnWut0nsUWgQ2R_E-8" target="NdbCEnWut0nsUWgQ2R_E-62">
          <mxGeometry relative="1" as="geometry">
            <mxPoint x="2186" y="588" as="sourcePoint" />
            <Array as="points">
              <mxPoint x="2265" y="588" />
            </Array>
            <mxPoint x="2419" y="588" as="targetPoint" />
          </mxGeometry>
        </mxCell>
        <mxCell id="NdbCEnWut0nsUWgQ2R_E-66" value="getAppointment(appointment)" style="edgeLabel;html=1;align=center;verticalAlign=middle;resizable=0;points=[];" vertex="1" connectable="0" parent="NdbCEnWut0nsUWgQ2R_E-65">
          <mxGeometry x="-0.1981" y="-1" relative="1" as="geometry">
            <mxPoint x="-56" y="-11" as="offset" />
          </mxGeometry>
        </mxCell>
        <mxCell id="NdbCEnWut0nsUWgQ2R_E-69" style="rounded=0;orthogonalLoop=1;jettySize=auto;html=1;endArrow=open;endFill=0;dashed=1;" edge="1" parent="1" source="NdbCEnWut0nsUWgQ2R_E-62" target="NdbCEnWut0nsUWgQ2R_E-8">
          <mxGeometry relative="1" as="geometry">
            <mxPoint x="2548" y="613" as="sourcePoint" />
            <Array as="points">
              <mxPoint x="2401" y="613" />
            </Array>
            <mxPoint x="2373" y="613" as="targetPoint" />
          </mxGeometry>
        </mxCell>
        <mxCell id="NdbCEnWut0nsUWgQ2R_E-70" value="return(appointment)" style="edgeLabel;html=1;align=center;verticalAlign=middle;resizable=0;points=[];" vertex="1" connectable="0" parent="NdbCEnWut0nsUWgQ2R_E-69">
          <mxGeometry x="-0.1981" y="-1" relative="1" as="geometry">
            <mxPoint x="45" y="-11" as="offset" />
          </mxGeometry>
        </mxCell>
        <mxCell id="NdbCEnWut0nsUWgQ2R_E-75" style="rounded=0;orthogonalLoop=1;jettySize=auto;html=1;endArrow=open;endFill=0;dashed=1;" edge="1" parent="1" target="NdbCEnWut0nsUWgQ2R_E-6">
          <mxGeometry relative="1" as="geometry">
            <mxPoint x="2174" y="719" as="sourcePoint" />
            <Array as="points">
              <mxPoint x="2025" y="719" />
            </Array>
            <mxPoint x="1941.5" y="719" as="targetPoint" />
          </mxGeometry>
        </mxCell>
        <mxCell id="NdbCEnWut0nsUWgQ2R_E-76" value="displayForm(reviewForm)" style="edgeLabel;html=1;align=center;verticalAlign=middle;resizable=0;points=[];fontFamily=Helvetica;fontSize=11;fontColor=default;labelBackgroundColor=default;" vertex="1" connectable="0" parent="NdbCEnWut0nsUWgQ2R_E-75">
          <mxGeometry x="-0.0422" relative="1" as="geometry">
            <mxPoint x="-3" y="-9" as="offset" />
          </mxGeometry>
        </mxCell>
        <mxCell id="NdbCEnWut0nsUWgQ2R_E-77" style="rounded=0;orthogonalLoop=1;jettySize=auto;html=1;endArrow=open;endFill=0;dashed=1;" edge="1" parent="1" source="NdbCEnWut0nsUWgQ2R_E-6" target="NdbCEnWut0nsUWgQ2R_E-12">
          <mxGeometry relative="1" as="geometry">
            <mxPoint x="1931.54" y="740" as="sourcePoint" />
            <Array as="points">
              <mxPoint x="1819.54" y="740" />
            </Array>
            <mxPoint x="1750.9994594594596" y="740" as="targetPoint" />
          </mxGeometry>
        </mxCell>
        <mxCell id="NdbCEnWut0nsUWgQ2R_E-78" value="review form" style="edgeLabel;html=1;align=center;verticalAlign=middle;resizable=0;points=[];fontFamily=Helvetica;fontSize=11;fontColor=default;labelBackgroundColor=default;" vertex="1" connectable="0" parent="NdbCEnWut0nsUWgQ2R_E-77">
          <mxGeometry x="-0.0422" relative="1" as="geometry">
            <mxPoint x="-3" y="-9" as="offset" />
          </mxGeometry>
        </mxCell>
        <mxCell id="NdbCEnWut0nsUWgQ2R_E-80" style="rounded=0;orthogonalLoop=1;jettySize=auto;html=1;endArrow=open;endFill=0;" edge="1" parent="1" source="NdbCEnWut0nsUWgQ2R_E-12" target="NdbCEnWut0nsUWgQ2R_E-6">
          <mxGeometry relative="1" as="geometry">
            <mxPoint x="1753" y="791" as="sourcePoint" />
            <Array as="points">
              <mxPoint x="1828" y="791" />
            </Array>
            <mxPoint x="1934" y="791" as="targetPoint" />
          </mxGeometry>
        </mxCell>
        <mxCell id="NdbCEnWut0nsUWgQ2R_E-81" value="clickButton(&#39;sendReview&#39;, review)" style="edgeLabel;html=1;align=center;verticalAlign=middle;resizable=0;points=[];" vertex="1" connectable="0" parent="NdbCEnWut0nsUWgQ2R_E-80">
          <mxGeometry x="-0.1981" y="-1" relative="1" as="geometry">
            <mxPoint x="16" y="-10" as="offset" />
          </mxGeometry>
        </mxCell>
        <mxCell id="NdbCEnWut0nsUWgQ2R_E-82" style="rounded=0;orthogonalLoop=1;jettySize=auto;html=1;endArrow=open;endFill=0;" edge="1" parent="1" source="NdbCEnWut0nsUWgQ2R_E-6" target="NdbCEnWut0nsUWgQ2R_E-8">
          <mxGeometry relative="1" as="geometry">
            <mxPoint x="1955" y="827" as="sourcePoint" />
            <Array as="points">
              <mxPoint x="2033" y="827" />
            </Array>
            <mxPoint x="2182" y="827" as="targetPoint" />
          </mxGeometry>
        </mxCell>
        <mxCell id="NdbCEnWut0nsUWgQ2R_E-83" value="storeReview(review)" style="edgeLabel;html=1;align=center;verticalAlign=middle;resizable=0;points=[];" vertex="1" connectable="0" parent="NdbCEnWut0nsUWgQ2R_E-82">
          <mxGeometry x="-0.1981" y="-1" relative="1" as="geometry">
            <mxPoint x="16" y="-10" as="offset" />
          </mxGeometry>
        </mxCell>
        <mxCell id="NdbCEnWut0nsUWgQ2R_E-84" style="rounded=0;orthogonalLoop=1;jettySize=auto;html=1;endArrow=open;endFill=0;" edge="1" parent="1" source="NdbCEnWut0nsUWgQ2R_E-8" target="NdbCEnWut0nsUWgQ2R_E-86">
          <mxGeometry relative="1" as="geometry">
            <mxPoint x="1973" y="853" as="sourcePoint" />
            <Array as="points">
              <mxPoint x="2278" y="849" />
            </Array>
            <mxPoint x="2210" y="853" as="targetPoint" />
          </mxGeometry>
        </mxCell>
        <mxCell id="NdbCEnWut0nsUWgQ2R_E-85" value="storeReview(review)" style="edgeLabel;html=1;align=center;verticalAlign=middle;resizable=0;points=[];" vertex="1" connectable="0" parent="NdbCEnWut0nsUWgQ2R_E-84">
          <mxGeometry x="-0.1981" y="-1" relative="1" as="geometry">
            <mxPoint x="16" y="-10" as="offset" />
          </mxGeometry>
        </mxCell>
        <mxCell id="NdbCEnWut0nsUWgQ2R_E-87" style="rounded=0;orthogonalLoop=1;jettySize=auto;html=1;endArrow=open;endFill=0;dashed=1;" edge="1" parent="1" source="NdbCEnWut0nsUWgQ2R_E-86" target="NdbCEnWut0nsUWgQ2R_E-8">
          <mxGeometry relative="1" as="geometry">
            <mxPoint x="2428" y="896" as="sourcePoint" />
            <Array as="points">
              <mxPoint x="2272" y="879" />
            </Array>
            <mxPoint x="2075" y="896" as="targetPoint" />
          </mxGeometry>
        </mxCell>
        <mxCell id="NdbCEnWut0nsUWgQ2R_E-88" value="return(&#39;success&#39;)" style="edgeLabel;html=1;align=center;verticalAlign=middle;resizable=0;points=[];" vertex="1" connectable="0" parent="NdbCEnWut0nsUWgQ2R_E-87">
          <mxGeometry x="-0.1981" y="-1" relative="1" as="geometry">
            <mxPoint x="-21" y="-9" as="offset" />
          </mxGeometry>
        </mxCell>
        <mxCell id="NdbCEnWut0nsUWgQ2R_E-97" style="rounded=0;orthogonalLoop=1;jettySize=auto;html=1;endArrow=open;endFill=0;dashed=1;" edge="1" parent="1" source="NdbCEnWut0nsUWgQ2R_E-8" target="NdbCEnWut0nsUWgQ2R_E-6">
          <mxGeometry relative="1" as="geometry">
            <mxPoint x="2179" y="1013" as="sourcePoint" />
            <Array as="points">
              <mxPoint x="2038" y="993" />
            </Array>
            <mxPoint x="1947" y="1013" as="targetPoint" />
          </mxGeometry>
        </mxCell>
        <mxCell id="NdbCEnWut0nsUWgQ2R_E-98" value="display(&#39;Doctor successfully reviewed&#39;)" style="edgeLabel;html=1;align=center;verticalAlign=middle;resizable=0;points=[];fontFamily=Helvetica;fontSize=11;fontColor=default;labelBackgroundColor=default;" vertex="1" connectable="0" parent="NdbCEnWut0nsUWgQ2R_E-97">
          <mxGeometry x="-0.0422" relative="1" as="geometry">
            <mxPoint x="-3" y="-9" as="offset" />
          </mxGeometry>
        </mxCell>
        <mxCell id="NdbCEnWut0nsUWgQ2R_E-99" style="rounded=0;orthogonalLoop=1;jettySize=auto;html=1;endArrow=open;endFill=0;dashed=1;" edge="1" parent="1" source="NdbCEnWut0nsUWgQ2R_E-6" target="NdbCEnWut0nsUWgQ2R_E-12">
          <mxGeometry relative="1" as="geometry">
            <mxPoint x="1934.91" y="1030" as="sourcePoint" />
            <Array as="points">
              <mxPoint x="1805.91" y="1030" />
            </Array>
            <mxPoint x="1699" y="1030" as="targetPoint" />
          </mxGeometry>
        </mxCell>
        <mxCell id="NdbCEnWut0nsUWgQ2R_E-100" value="&#39;Doctor successfully reviewed&#39;" style="edgeLabel;html=1;align=center;verticalAlign=middle;resizable=0;points=[];fontFamily=Helvetica;fontSize=11;fontColor=default;labelBackgroundColor=default;" vertex="1" connectable="0" parent="NdbCEnWut0nsUWgQ2R_E-99">
          <mxGeometry x="-0.0422" relative="1" as="geometry">
            <mxPoint x="-3" y="-9" as="offset" />
          </mxGeometry>
        </mxCell>
      </root>
    </mxGraphModel>
  </diagram>
</mxfile>
